<svg width="424" height="48" viewBox="0 0 424 48" fill="none" xmlns="http://www.w3.org/2000/svg">
<path d="M89.9768 4.89525H119.53C119.53 4.89525 126.418 4.48027 122.699 10.5038L112.659 24.3742H96.6646L110.607 10.5038C110.607 10.5038 112.275 9.10794 108.756 9.10794H89.9768V4.89525Z" fill="white"/>
<path d="M145.397 9.32172H128.486V13.0943H145.397V9.32172Z" fill="white"/>
<path d="M145.397 4.19104H128.486V7.98875H145.397V4.19104Z" fill="white"/>
<path d="M158.222 20.0358V12.7547L128.486 17.1058V24.3994L158.222 20.0358Z" fill="white"/>
<path d="M153.586 4.19104H150.034V9.24626H153.586V4.19104Z" fill="white"/>
<path d="M158.039 4.19104H154.52V9.24626H158.039V4.19104Z" fill="white"/>
<path d="M169.38 17.1812L171.448 15.1818H180.137L171.365 23.9089H187.375L197.415 10.0385C201.134 4.01498 194.23 4.42997 194.23 4.42997H174.383L161.191 17.1938H169.363L169.38 17.1812ZM183.473 8.63008C187.008 8.63008 185.324 10.0259 185.324 10.0259L183.956 11.384H175.367L178.219 8.63008H183.473Z" fill="white"/>
<path d="M208.906 22.3622C210.808 22.337 212.125 22.3119 214.076 22.2113V20.4508C210.441 21.3436 208.306 21.5322 206.988 21.6203L205.771 19.4322C209.006 19.3064 213.476 18.7531 217.262 17.4579V17.4076H206.238V15.3578H221.215V14.226H219.146L218.446 12.5284H220.981C221.298 12.5284 221.381 12.4026 221.381 12.2014V11.1954H217.078V14.5153H214.076V11.1954H210.224V14.2763H207.305V9.52292H214.076V8.6175H205.788V6.83183H208.639V6.7941L206.455 5.91384C207.806 4.9204 208.923 3.77606 209.607 2.48081L212.592 2.95867C212.158 3.66288 212.075 3.75091 211.908 3.97726H214.093V2.58141H217.095V3.97726H224.183V5.76294H217.095V6.8444H225.534V8.63008H217.095V9.53549H224.183V12.3901C224.183 12.5661 224.183 13.1068 223.633 13.6476H224.917V15.3578H238.243V17.4076H234.907V17.4579L236.992 18.4765C235.191 19.4825 234.223 19.91 232.005 20.8406C235.04 21.8718 237.342 22.1358 238.843 22.337L237.175 24.6257C229.72 23.5191 224.133 20.3124 222.082 17.5585C221.398 17.9609 220.114 18.6525 217.112 19.6334V22.0478C221.081 21.8466 223.383 21.658 224.917 21.5322V23.5065C218.713 24.0724 216.395 24.261 209.357 24.5251L208.94 22.3622H208.906ZM214.076 6.8444V5.76294H210.441C209.807 6.35397 209.173 6.75638 209.04 6.8444H214.076ZM225.517 17.4201C225.901 17.8225 226.518 18.5519 228.903 19.6585C230.771 18.8537 232.906 17.6842 233.339 17.4201H225.517ZM226.935 3.6H230.271V10.6421H226.935V3.6ZM233.623 2.59399H237.125V12.3649C237.125 13.635 235.974 14.2889 234.457 14.2889H230.371L229.57 12.0757H232.589C233.523 12.0757 233.623 11.8242 233.623 11.4218V2.59399Z" fill="white"/>
<path d="M251.185 14.1254C250.234 14.5656 248.466 15.3955 243.863 16.5902L242.796 14.4021C244.43 14.0248 247.415 13.2452 250.317 12.0254L251.185 14.1254ZM257.639 20.2873C254.72 21.8089 249.967 23.4562 244.297 24.3113L242.962 21.8466C244.947 21.6831 249.967 21.2178 254.77 19.3944V19.3567H243.213V17.2818H257.656V16.2003H252.002V7.80012H257.005L257.789 6.25337L261.024 6.50487C260.874 6.85698 260.708 7.18393 260.424 7.80012H266.845V16.2003H261.158V17.2818H275.601V19.3567H264.01V19.3944C267.512 20.8154 272.232 21.419 276.018 21.7334L274.7 24.2485C272.065 23.8461 266.178 22.8903 261.175 20.1993V24.7012H257.689V20.2999L257.639 20.2873ZM250.317 2.51854H253.753V3.7006H265.094V2.51854H268.546V3.7006H275.567V5.81324H268.546V7.02046H265.094V5.81324H253.753V7.02046H250.317V5.81324H243.196V3.7006H250.317V2.51854ZM245.698 7.00788C247.365 7.52346 249.55 8.4666 251.185 9.46004L249.167 11.4595C247.465 10.2523 244.797 9.17081 243.896 8.89416L245.698 7.00788ZM255.237 11.1325H263.526V9.46004H255.237V11.1325ZM255.237 14.4021H263.526V12.6416H255.237V14.4021ZM274.967 8.70553C273.333 9.8876 270.898 11.0194 269.73 11.4846L267.729 9.787C269.83 8.94446 271.565 7.88814 272.749 7.00788L274.967 8.70553ZM269.463 12.2643C271.448 12.805 274.167 13.8614 275.768 14.641L273.7 16.5525C271.548 15.2321 268.946 14.4147 267.729 14.0374L269.463 12.2769V12.2643Z" fill="white"/>
<path d="M297.516 8.49175C296.615 10.0511 295.898 10.7804 295.231 11.4595L291.762 10.1014C292.179 9.7367 292.345 9.58579 292.746 9.19596H288.509V11.12C289.594 12.4404 291.395 13.7985 293.263 15.1063L291.078 17.2189C290.027 16.4015 289.343 15.6219 288.576 14.5907H288.509V24.6383H285.224V13.7608H285.157C284.307 15.5716 283.289 17.5207 281.138 19.6962L279.537 16.7285C282.005 14.4901 283.64 11.8745 284.757 9.19596H280.237V6.88213H285.224V2.63171H288.509V6.86955H292.746V9.18339H292.812C293.763 8.12707 294.697 6.86955 295.964 3.3988L299.584 3.73833C299.367 4.40482 299.083 5.13418 298.633 6.16534H301.301V2.63171H304.737V6.19049H312.059V8.49175H304.737V11.7865H312.742V14.1129H305.838C308.273 17.1309 310.141 18.5645 313.293 20.2747L311.475 22.8652C310.157 22.0604 306.905 20.0358 304.804 16.7914H304.72V24.6257H301.285V16.8543H301.218C299.167 19.1932 296.932 20.8783 293.446 22.7017L291.195 20.5639C294.313 19.1304 297.716 17.2189 300.317 14.1129H292.729V11.7865H301.285V8.49175H297.516Z" fill="white"/>
<path d="M349.667 6.35397V8.70553H339.26C339.46 12.7673 340.794 16.9926 341.962 18.9166C342.379 19.5705 343.913 21.6957 345.114 21.6957C346.315 21.6957 346.932 18.992 347.049 18.1621L350.251 19.3944C349.767 21.2178 348.833 24.676 345.698 24.676C342.329 24.676 340.044 21.9724 339.21 20.8909C336.191 16.9171 335.941 12.5787 335.758 8.71811H317.329V6.36655H335.591C335.524 5.1216 335.424 2.99639 335.391 2.61914H339.06C339.06 3.82636 339.06 4.69404 339.093 6.36655H345.381V6.31624C343.463 5.3731 341.929 4.83237 340.211 4.24134L342.279 2.40536C345.031 3.3485 345.081 3.37365 347.866 4.64374L345.881 6.35397H349.667ZM317.345 21.4316C318.213 21.3939 318.58 21.3436 319.08 21.331C319.914 21.2304 323.8 20.9035 324.7 20.8029V13.9745H317.929V11.6481H334.64V13.9745H328.269V20.5011C332.239 20.0987 334.373 19.8094 335.724 19.6208V21.834C330.104 22.6514 322.099 23.4814 317.929 23.8335L317.345 21.4316Z" fill="white"/>
<path d="M361.558 9.96305C358.923 11.0697 357.339 11.5727 355.838 11.9877L353.786 9.72412C359.357 8.4163 365.861 5.52401 368.796 2.48081H372.782C375.368 5.20963 381.005 7.85042 387.776 9.6361L385.558 11.9877C384.123 11.4972 382.105 10.8182 379.987 9.90018V11.2457H361.575V9.97563L361.558 9.96305ZM382.239 24.8772C381.822 24.3365 381.738 24.2359 380.838 23.2802C362.659 24.1101 361.492 24.173 356.205 24.173L355.688 21.7334C356.405 21.7334 359.023 21.7083 360.674 21.6831C361.742 20.2999 362.993 18.3381 364.01 16.2255H355.104V13.9368H386.358V16.2255H368.279C366.578 18.8286 365.644 20.2999 364.577 21.6328C371.732 21.5197 373.383 21.4945 378.736 21.2807C376.435 19.2058 375.634 18.6022 374.634 17.9106L377.586 16.6782C379.07 17.6716 382.739 20.1867 385.591 23.4562L382.255 24.8647L382.239 24.8772ZM378.036 8.99476V8.94446C375.368 7.72467 372.966 6.19049 370.831 4.51799C369.447 5.64976 367.562 7.08333 363.693 8.94446V8.99476H378.053H378.036Z" fill="white"/>
<path d="M400.268 24.7138H396.732V15.6219C394.764 16.8668 393.396 17.4579 392.529 17.8225L390.961 15.4081C395.431 13.6476 398.833 11.1074 400.401 8.54205H391.445V6.22822H396.715V2.56884H400.251V6.24079H404.337V8.55463C404.337 9.04506 401.568 11.8745 400.835 12.5284C402.619 13.8865 403.436 14.3015 405.688 15.4207L404.003 17.6591C402.419 16.7662 401.468 16.1249 400.251 15.1818V24.7263L400.268 24.7138ZM412.125 2.56884H415.778V9.22111H423.2V11.7487H415.778V21.4065H424V23.9341H403.386V21.4065H412.125V11.7487H404.887V9.22111H412.125V2.56884Z" fill="white"/>
<path d="M36.4243 25.1287C36.4243 25.1287 2.11808 24.6257 1.63443 14.0374C2.11808 3.46168 36.4243 2.94609 36.4243 2.94609C36.4243 2.94609 57.6052 3.21017 65.6105 9.47262H80.5038C74.75 4.10301 59.2062 0.192126 40.9607 0.519081C17.9453 0.908912 0.100067 6.5426 0 14.0123C0 14.0123 0 14.0374 0 14.05C0 14.05 0 14.0751 0 14.0877C0.100067 21.5448 17.9453 27.1911 40.9607 27.5935C59.2062 27.9204 74.7333 23.997 80.4871 18.6148H65.5938C57.5885 24.8772 36.4077 25.1413 36.4077 25.1413" fill="white"/>
<path d="M19.0794 17.6591H12.992V16.7914H14.1928V11.2457H12.992V10.3529H23.9327V13.0943H22.882V11.2457H17.8286V13.3081H21.8479V14.0751H17.8286V16.7914H19.0794V17.6591Z" fill="white"/>
<path d="M56.7546 11.2457H55.5371V16.7914H56.7546V17.6591H50.6839V16.7914H51.8847V11.2457H50.6839V10.3529H56.7546V11.2457Z" fill="white"/>
<path d="M38.0421 11.2457V10.4409H32.0047V11.2457H33.3389V14.7668C33.2222 16.6153 32.4717 16.8165 31.4544 16.8165C30.437 16.8165 29.6698 16.6279 29.5531 14.7668V11.2457H30.904V10.4409H24.8666V11.2457H26.0674V14.4901C25.7505 18.0237 31.2709 17.7094 31.4544 17.7094C31.6378 17.7094 37.1582 18.0237 36.8413 14.4901V11.2457H38.0588H38.0421Z" fill="white"/>
<path d="M41.2276 14.0751V14.7668C41.3276 16.6153 42.1115 16.8165 43.1121 16.8165C44.1128 16.8165 44.88 16.6279 44.9967 14.7668V11.2457H43.6458V10.4409H49.6832V11.2457H48.4824V14.4901C48.816 18.0237 43.2789 17.7094 43.0955 17.7094C42.912 17.7094 37.3917 18.0237 37.7085 14.4901V14.0751H41.2276Z" fill="white"/>
<path d="M57.7553 13.0691H58.8226V11.2457H61.1242V16.7914H59.9234V17.6591H66.0275V16.7914H64.7599V11.2457H67.0448V13.0691H68.1289V11.2457H68.1455V10.3529H57.7719V10.3655H57.7553V13.0691Z" fill="white"/>
<path d="M68.0955 17.7345H71.3977V16.8668H70.2803L70.9641 15.383H74.8L75.5338 16.8543H74.5331V17.7471H80.8207V16.8543H79.7533L76.5512 10.4535H72.1482L69.1295 16.8794H68.0955V17.7471V17.7345ZM72.8153 11.296L74.4498 14.553H71.3644L72.8153 11.296Z" fill="white"/>
<path d="M101.568 33.8936V32.5104H103.252V33.8936H112.058V35.1009H103.252V36.1949H110.624V42.1807H104.503C106.621 43.9664 109.973 45.2742 112.308 45.8652L111.324 47.1227C108.256 46.1042 105.437 44.6832 103.236 42.734V47.4497H101.551V42.7466C99.6833 44.5826 96.5812 46.1419 93.5125 47.1353L92.5118 45.8778C95.4972 45.0227 98.3157 43.8155 100.284 42.1807H94.263V36.1949H101.551V35.1009H92.762V33.8936H101.568ZM95.8808 38.6596H101.568V37.3141H95.8808V38.6596ZM95.8808 41.0866H101.568V39.7034H95.8808V41.0866ZM109.023 37.3141H103.252V38.6596H109.023V37.3141ZM109.023 39.7034H103.252V41.0866H109.023V39.7034Z" fill="white"/>
<path d="M113.576 45.9784C115.277 45.1107 116.828 43.9915 118.079 42.4196L119.597 43.0358C118.763 44.1802 117.579 45.4125 114.81 47.0221L113.576 45.9784ZM124.2 32.4978V33.8936H133.106V35.1637H113.676V33.8936H122.398V32.4978H124.2ZM130.787 41.6525H124.216V46.1167C124.216 46.9593 123.883 47.4874 122.482 47.4874H119.38L118.963 46.1167H121.815C122.415 46.1293 122.499 46.079 122.499 45.6389V41.6651H115.994V36.5344H130.771V41.6651L130.787 41.6525ZM129.103 37.7165H117.679V40.4579H129.103V37.7165ZM128.269 42.3819C129.87 44.0418 131.254 44.9724 133.122 45.8275L131.988 46.9593C129.687 45.9029 128.302 44.7335 126.751 43.0484L128.286 42.3819H128.269Z" fill="white"/>
<path d="M146.314 33.7176C144.914 35.7422 143.946 36.7105 143.229 37.4021H145.731V38.559H141.912C141.044 39.2507 140.377 39.6657 139.893 39.9549H144.647V46.7203H138.092V47.4874H136.491V41.6777C135.874 41.9292 135.491 42.0675 135.04 42.2184L134.356 41.0866C135.324 40.7848 137.292 40.1184 139.66 38.5465H134.673V37.3895H138.843V35.2015H135.324V34.0571H138.843V32.5104H140.444V34.0571H143.413V35.0883C144.013 34.3841 144.413 33.7679 144.763 33.1894L146.314 33.705V33.7176ZM143.112 41.0489H138.109V42.7717H143.112V41.0489ZM143.112 43.828H138.109V45.6389H143.112V43.828ZM141.194 37.4021C142.278 36.4464 142.896 35.7422 143.329 35.214H140.444V37.4021H141.194ZM153.719 34.1074C153.102 35.6793 152.135 37.1506 151.134 38.5842C153.453 40.2567 154.036 41.7028 154.036 42.9729C154.036 43.8155 153.753 44.9598 152.769 45.4125C152.052 45.7898 151.451 45.8023 150.784 45.8023H149.283L149.05 44.4819H150.517C151.218 44.5197 152.235 44.5197 152.235 42.9855C152.235 41.7657 151.635 40.6339 149.2 38.7854C150.501 36.8488 151.068 35.9811 151.851 34.1074H148.349V47.4874H146.665V32.9379H153.719V34.1074Z" fill="white"/>
<path d="M164.31 40.0303V47.3239H162.709V46.6197H157.922V47.4497H156.338V40.0303H164.31ZM157.922 45.4502H162.709V41.1873H157.922V45.4502ZM172.332 38.5842H158.356V33.0134H172.332V38.5842ZM160.024 37.3895H170.697V34.208H160.024V37.3895ZM174.367 40.0303V47.4497H172.765V46.6197H167.695V47.4497H166.111V40.0303H174.367ZM167.695 45.4502H172.765V41.1873H167.695V45.4502Z" fill="white"/>
<path d="M180.587 32.6361V38.8357C180.587 44.1173 179.286 46.0664 177.685 47.3742L176.385 46.2928C177.685 44.9724 178.82 43.5388 178.82 38.798V32.6361H180.604H180.587ZM187.375 46.2928H185.624V33.1769H187.375V46.2928ZM194.68 47.4748H192.879V32.6864H194.68V47.4748Z" fill="white"/>
<path d="M216.528 33.0888V34.3589H200.167V45.4628H216.978V46.7581H200.167V47.4623H198.433V33.0888H216.528ZM213.593 35.3272C212.909 36.4464 211.942 37.88 210.274 39.4896C212.892 40.8477 214.743 42.0801 215.761 42.7591L214.56 43.8658C212.909 42.6963 211.275 41.5771 209.19 40.483C207.589 41.8789 205.587 43.2496 202.352 44.7712L201.151 43.6771C202.502 43.1238 205.104 42.0298 207.806 39.7537C205.421 38.559 203.253 37.7794 201.935 37.2889L202.869 36.2452C203.903 36.635 206.004 37.4021 208.873 38.7728C210.657 37.05 211.491 35.541 211.875 34.7991L213.576 35.3146L213.593 35.3272Z" fill="white"/>
<path d="M228.903 37.5027H236.658V38.8357H228.903V45.5131H238.042V46.8712H218.546V45.5131H227.052V32.5607H228.903V37.5027Z" fill="white"/>
<path d="M248.166 32.5104H250.017V36.459H258.89V37.8045H250.317C251.601 42.0424 254.02 44.3813 259.207 46.0287L258.022 47.3617C253.82 45.8401 250.684 43.6268 249.3 39.6405C248.883 40.7848 247.799 43.2244 244.663 45.2993C242.862 46.494 241.278 47.0347 240.444 47.3365L239.443 45.9533C242.429 45.0353 246.965 43.0861 248.082 37.792H239.61V36.4464H248.183V32.4978L248.166 32.5104Z" fill="white"/>
<path d="M279.82 40.0303H278.703V46.2802C278.703 46.7832 278.653 47.5 277.102 47.5H274.083L273.816 46.2299H276.401C277.068 46.2299 277.069 45.991 277.069 45.6137V40.0303H267.862V45.3999H262.459V46.5694H261.024V34.6607H262.459V44.155H263.743V32.4223H265.177V44.155H266.478V34.6607H267.862V38.8483H279.82V40.0303ZM268.329 37.3644C269.313 37.0752 271.465 36.4841 272.349 34.9751H268.563V33.8182H272.799C272.949 33.2775 272.949 32.8373 272.966 32.4349H274.65C274.65 32.8373 274.584 33.2397 274.467 33.8182H279.437V34.9751H275.484C276.368 36.0314 277.335 36.6979 279.72 37.3644L279.036 38.5716C276.668 37.8674 274.934 36.6476 274 35.126C273.049 37.0374 270.848 38.0057 269.18 38.5339L268.363 37.3644H268.329ZM275.334 45.3245H269.33V41.0489H275.334V45.3245ZM273.85 42.1052H270.831V44.243H273.85V42.1052Z" fill="white"/>
<path d="M284.29 36.0817C284.524 35.4907 284.874 34.9751 285.374 34.5475C285.858 34.12 286.475 33.7805 287.209 33.529C287.942 33.2775 288.76 33.1643 289.694 33.1643C290.461 33.1643 291.178 33.2523 291.845 33.4284C292.512 33.6044 293.096 33.8559 293.596 34.1829C294.097 34.5098 294.48 34.9248 294.78 35.4152C295.081 35.9057 295.214 36.4716 295.214 37.1129C295.214 37.7165 295.097 38.2572 294.847 38.7225C294.614 39.1878 294.28 39.6028 293.88 39.9675C293.479 40.3321 293.029 40.6717 292.512 40.9609C291.995 41.2627 291.461 41.5394 290.911 41.816C290.361 42.0675 289.827 42.3316 289.277 42.5831C288.726 42.8346 288.226 43.0987 287.776 43.3879C287.325 43.6646 286.925 43.9789 286.608 44.3059C286.291 44.6329 286.074 45.0101 285.974 45.4377H295.03V46.8838H283.523C283.606 46.0664 283.79 45.3748 284.09 44.8089C284.373 44.2304 284.757 43.74 285.191 43.3125C285.641 42.8849 286.141 42.5076 286.708 42.1933C287.275 41.8663 287.859 41.5645 288.476 41.2878C289.21 40.9232 289.877 40.5962 290.444 40.2944C291.011 39.9926 291.478 39.6782 291.845 39.3764C292.212 39.0746 292.495 38.7351 292.696 38.3704C292.879 38.0057 292.979 37.5907 292.979 37.1129C292.979 36.7356 292.896 36.3961 292.712 36.0943C292.529 35.7925 292.279 35.5284 291.978 35.3146C291.678 35.0883 291.311 34.9248 290.894 34.8116C290.477 34.6984 290.044 34.6356 289.577 34.6356C288.96 34.6356 288.443 34.7362 287.992 34.9374C287.542 35.1386 287.192 35.4027 286.908 35.717C286.625 36.044 286.425 36.4087 286.308 36.8111C286.191 37.2135 286.125 37.6285 286.141 38.0435H284.023C283.973 37.3518 284.073 36.6979 284.29 36.1069" fill="white"/>
<path d="M317.262 34.4721H308.489V46.0161C308.489 46.8838 307.972 47.4371 306.505 47.4371H302.852L302.519 46.0538H306.038C306.271 46.0664 306.638 46.0664 306.638 45.6514V34.4847H297.949V33.1266H317.245V34.4847L317.262 34.4721Z" fill="white"/>
<path d="M336.225 33.1769V47.4623H334.457V46.67H322.682V47.4623H320.965V33.1769H336.225ZM322.699 37.1758H334.457V34.4092H322.699V37.1758ZM322.699 41.1873H334.457V38.3578H322.699V41.1873ZM322.699 45.4125H334.457V42.3819H322.699V45.4125Z" fill="white"/>
<path d="M344.697 46.8712V37.05H340.127V35.7296C340.728 35.7296 341.311 35.6919 341.878 35.629C342.446 35.5536 342.946 35.4278 343.413 35.2266C343.88 35.038 344.263 34.7739 344.564 34.4344C344.881 34.0948 345.097 33.6673 345.214 33.1517H346.832V46.8587H344.714L344.697 46.8712Z" fill="white"/>
<path d="M355.237 39.062H355.938C356.388 39.062 356.805 39.0117 357.222 38.9111C357.622 38.8105 357.989 38.6722 358.289 38.4836C358.59 38.295 358.84 38.056 359.023 37.7794C359.207 37.4901 359.29 37.1758 359.29 36.8111C359.29 36.0691 358.99 35.5284 358.39 35.1637C357.789 34.7991 357.039 34.6104 356.155 34.6104C355.588 34.6104 355.104 34.6984 354.67 34.8493C354.253 35.0128 353.903 35.2266 353.62 35.4907C353.353 35.7673 353.153 36.0817 353.019 36.4464C352.886 36.8111 352.819 37.1883 352.819 37.5907H350.701C350.734 36.9368 350.868 36.3332 351.118 35.7925C351.351 35.2518 351.702 34.7865 352.152 34.3966C352.602 34.0068 353.153 33.705 353.836 33.4912C354.504 33.2649 355.287 33.1643 356.155 33.1643C356.922 33.1643 357.622 33.2397 358.289 33.3906C358.94 33.5415 359.507 33.7679 359.991 34.0571C360.474 34.3589 360.858 34.7362 361.125 35.2015C361.392 35.6667 361.542 36.22 361.542 36.8488C361.542 37.4776 361.308 38.0183 360.841 38.4962C360.374 38.974 359.79 39.3387 359.107 39.5776V39.6154C360.191 39.804 360.991 40.1938 361.508 40.7974C362.025 41.401 362.292 42.1178 362.292 42.9478C362.292 43.6268 362.125 44.2304 361.808 44.7586C361.475 45.2742 361.041 45.7143 360.508 46.0664C359.957 46.4185 359.323 46.67 358.573 46.8461C357.839 47.0221 357.055 47.1102 356.221 47.1102C355.321 47.1102 354.504 47.0096 353.786 46.8209C353.053 46.6323 352.436 46.3431 351.919 45.9658C351.402 45.5886 351.018 45.1107 350.734 44.57C350.468 44.0167 350.334 43.3879 350.351 42.6711H352.469C352.502 43.564 352.836 44.2933 353.47 44.8466C354.103 45.4125 355.021 45.6892 356.238 45.6892C356.755 45.6892 357.239 45.6263 357.706 45.5005C358.173 45.3748 358.573 45.1987 358.923 44.9724C359.273 44.746 359.54 44.4694 359.757 44.1424C359.974 43.8155 360.074 43.4382 360.074 43.0358C360.074 42.6334 359.974 42.231 359.774 41.904C359.574 41.5771 359.307 41.3004 358.973 41.0741C358.64 40.8477 358.239 40.6842 357.789 40.5711C357.322 40.4579 356.839 40.4076 356.305 40.4076C355.855 40.4076 355.438 40.4202 355.037 40.4705V39.0746C355.037 39.0746 355.187 39.0872 355.254 39.0872" fill="white"/>
<path d="M376.535 36.2201H379.103C379.77 35.1763 379.987 34.6985 380.221 34.0697L381.839 34.3338C381.472 35.038 381.155 35.6416 380.771 36.2326H385.374V37.3392H378.286C378.97 37.9051 380.021 38.5339 381.271 39.0746C383.29 39.9423 384.841 40.2693 385.641 40.4327L384.891 41.6777C384.324 41.4765 384.273 41.4639 383.44 41.1998V47.4748H381.805V46.7706H369.797V47.4748H368.163V41.1873C367.646 41.3633 367.295 41.4639 366.728 41.6274L366.028 40.4327C368.83 39.8417 370.881 39.1249 373.299 37.3644H366.211V36.2578H370.731C370.514 35.8051 370.281 35.4907 369.814 34.9248L371.398 34.5853C371.932 35.3775 372.282 36.0943 372.366 36.2578H374.984V34.3463C374.033 34.3589 369.847 34.447 368.997 34.4595C368.496 34.4721 368.146 34.4721 367.629 34.4721L367.279 33.3152C368.129 33.3278 368.763 33.3529 369.947 33.3529C373.3 33.3529 376.652 33.2272 379.954 32.8876C381.588 32.7241 382.706 32.5355 383.39 32.4223L384.14 33.5541C382.973 33.7302 380.454 34.12 376.535 34.296V36.2704V36.2201ZM369.797 42.9729H374.984V41.3507H369.797V42.9729ZM369.797 45.6514H374.984V43.9789H369.797V45.6514ZM374.984 37.3895C373.75 38.5213 372.315 39.4393 370.347 40.3196H374.984V37.3895ZM381.155 40.3196C379.904 39.7788 378.353 39.1123 376.535 37.3267V40.3196H381.155ZM376.535 42.9729H381.805V41.3507H376.535V42.9729ZM376.535 45.6514H381.805V43.9789H376.535V45.6514Z" fill="white"/>
<path d="M390.261 36.0817C390.494 35.4907 390.845 34.9751 391.345 34.5475C391.829 34.12 392.446 33.7805 393.179 33.529C393.913 33.2775 394.731 33.1643 395.664 33.1643C396.432 33.1643 397.149 33.2523 397.816 33.4284C398.483 33.6044 399.067 33.8559 399.567 34.1829C400.067 34.5098 400.451 34.9248 400.751 35.4152C401.051 35.9057 401.185 36.4716 401.185 37.1129C401.185 37.7165 401.068 38.2572 400.818 38.7225C400.584 39.1878 400.251 39.6028 399.851 39.9675C399.45 40.3321 399 40.6717 398.483 40.9609C397.966 41.2627 397.432 41.5394 396.882 41.816C396.332 42.0675 395.781 42.3316 395.248 42.5831C394.697 42.8346 394.197 43.0987 393.747 43.3879C393.296 43.6646 392.896 43.9789 392.579 44.3059C392.262 44.6329 392.045 45.0101 391.945 45.4377H401.001V46.8838H389.494C389.577 46.0664 389.761 45.3748 390.061 44.8089C390.344 44.2304 390.728 43.74 391.161 43.3125C391.612 42.8849 392.112 42.5076 392.679 42.1933C393.246 41.8663 393.83 41.5645 394.447 41.2878C395.197 40.9232 395.848 40.5962 396.415 40.2944C396.982 39.9926 397.449 39.6782 397.816 39.3764C398.183 39.0746 398.466 38.7351 398.666 38.3704C398.867 38.0057 398.95 37.5907 398.95 37.1129C398.95 36.7356 398.867 36.3961 398.683 36.0943C398.5 35.7925 398.25 35.5284 397.949 35.3146C397.632 35.0883 397.282 34.9248 396.865 34.8116C396.448 34.6984 396.015 34.6356 395.548 34.6356C394.931 34.6356 394.414 34.7362 393.963 34.9374C393.53 35.1386 393.163 35.4027 392.879 35.717C392.596 36.044 392.396 36.4087 392.262 36.8111C392.145 37.2135 392.079 37.6285 392.095 38.0435H389.977C389.927 37.3518 390.027 36.6979 390.244 36.1069" fill="white"/>
<path d="M421.165 41.5645C420.715 46.167 420.064 47.4874 417.596 47.4874H414.36L413.96 46.1419H417.362C418.213 46.1544 418.496 45.7772 418.596 45.6137C418.947 45.1484 419.214 43.4382 419.297 42.7843H408.323C408.023 43.237 407.789 43.5011 407.439 43.9538L405.755 43.4382C406.922 42.0549 407.456 41.3004 408.223 39.9046H404.003V38.6974H423.116V39.9046H410.107C409.841 40.4076 409.574 40.9232 409.123 41.5771H421.148L421.165 41.5645ZM421.215 37.465H405.971V33.0511H421.215V37.465ZM419.514 34.2206H407.656V36.2955H419.514V34.2206Z" fill="white"/>
</svg>
