<svg width="433" height="64" viewBox="0 0 433 64" fill="none" xmlns="http://www.w3.org/2000/svg">
<path d="M247.602 62.2475V43.4153C245.069 46.8182 242.021 49.9894 238.459 52.9287C234.963 55.8403 231.448 58.1027 227.914 59.7161C227.344 58.9187 226.783 58.2789 226.213 57.7782C230.242 56.0906 234.225 53.5778 238.16 50.2398C242.124 46.8646 245.274 43.2855 247.602 39.4838V27.0402H227.709V24.7129H247.602V17.4248H250.051V24.7129H270.487V27.0402H250.051V39.2798C252.286 43.2762 255.389 46.9759 259.372 50.3603C263.354 53.7447 267.477 56.2483 271.74 57.8709C271.076 58.4365 270.478 59.1412 269.945 60.0036C266.28 58.418 262.672 56.1555 259.129 53.2162C255.576 50.2768 252.557 47.0408 250.061 43.4987V62.2382H247.611L247.602 62.2475ZM229.457 45.8446C229.027 45.381 228.372 44.871 227.512 44.3054C232.14 40.7726 235.262 35.5801 236.861 28.7371L239.207 29.1358C238.74 31.2221 238.057 33.2806 237.16 35.3298C239.955 37.8797 242.012 39.9103 243.311 41.431L241.61 43.0166C240.376 41.4959 238.562 39.6321 236.16 37.416C234.365 40.8561 232.131 43.6656 229.466 45.8446H229.457ZM268.842 45.2419C266.907 43.0629 264.009 40.3832 260.148 37.212C258.783 39.9845 257.119 42.3026 255.146 44.1478C254.782 43.7213 254.127 43.2391 253.202 42.7106C256.904 39.5672 259.334 34.9125 260.503 28.7278L262.849 29.0709C262.382 31.3148 261.784 33.364 261.055 35.2185C264.822 38.13 268 40.9025 270.599 43.5451L268.851 45.2327L268.842 45.2419Z" fill="#3E3A39"/>
<path d="M286.379 62.4422V24.3234H298.822C299.85 21.6808 300.654 19.3349 301.225 17.2857L303.777 17.7307C302.777 20.4754 301.907 22.6729 301.178 24.3234H319.622V62.0991H317.173V59.4194H288.791V62.4422H286.379ZM288.782 35.4317H317.164V26.6601H288.782V35.4317ZM288.782 46.2341H317.164V37.7035H288.782V46.2341ZM288.782 57.194H317.164V48.5244H288.782V57.194Z" fill="#3E3A39"/>
<path d="M340.806 61.7561V21.0039H372.142V61.4501H369.693V58.5293H343.208V61.7561H340.806ZM343.199 38.4545H369.683V23.3869H343.199V38.4545ZM343.199 56.2019H369.683V40.7819H343.199V56.2019Z" fill="#3E3A39"/>
<path d="M408.666 62.2475V52.4837H398.168V50.1007H408.666V32.3533C406.329 36.9802 403.375 41.2363 399.794 45.1214C396.214 49.0065 392.475 52.0201 388.576 54.1712C388.109 53.4758 387.548 52.836 386.875 52.2333C390.801 50.249 394.597 47.3004 398.243 43.3875C401.888 39.4745 404.815 35.237 407.011 30.675H388.417V28.292H408.657V17.434H411.106V28.292H431.495V30.675H412.705C414.873 35.3019 417.753 39.5301 421.352 43.3689C425.016 47.2726 428.896 50.1934 433 52.1406C432.364 52.6042 431.785 53.2626 431.252 54.1249C427.288 52.0757 423.502 49.0993 419.903 45.2048C416.369 41.4032 413.443 37.1564 411.106 32.4646V50.1099H421.455V52.4929H411.106V62.2568H408.657L408.666 62.2475Z" fill="#3E3A39"/>
<path d="M67.1964 55.3767L64.8313 62.2197H46.7047C40.1421 62.2197 34.5144 60.0221 29.8401 55.6456C28.1948 58.2511 25.8016 61.0421 22.6793 64L18.1266 59.3267C21.4733 55.9052 23.8852 52.7897 25.3623 49.9894C24.3152 48.2369 23.4645 46.1414 22.8195 43.712C22.2679 45.0101 21.3611 46.3361 20.0991 47.6899L16.8739 42.9888V63.2489H9.89063V33.0209C8.76882 34.8012 7.40395 36.8133 5.80537 39.0758L0 34.4396C6.55324 25.9461 11.3677 15.255 14.4433 2.36642L21.6416 4.57324C21.0713 7.22515 20.1271 10.4149 18.809 14.1424L16.8739 19.3349V41.4403C18.9025 38.9367 20.1926 36.6465 20.7441 34.5694H26.2597C26.83 37.2862 27.5124 39.7063 28.2977 41.839C28.896 38.8162 29.1951 35.4503 29.1951 31.7414V30.7214H25.7549C25.3249 31.3148 24.8574 31.8526 24.362 32.3348L18.9212 29.0431C23.2402 23.7393 26.2317 19.0474 27.877 14.9676H21.9314V8.09675H35.5053V14.9676C33.86 18.5838 31.8781 21.9961 29.5597 25.195H36.4027C36.2812 36.1179 35.122 44.2591 32.9251 49.6278C36.3653 53.4666 40.7217 55.3859 45.9942 55.3859H67.1964V55.3767ZM65.8035 21.7643H62.8681V30.2485H53.2018V32.7799H63.2327V38.8625H53.2018V41.4959H65.4483V47.5508H53.2018V54.0971H46.2934V47.5508H36.9823V41.4959H46.2934V38.8625H38.45V32.7799H46.2934V30.2485H38.8053V24.2307H46.2934V21.7643H37.1226V15.6816H46.2934V13.178H38.9549V7.18806H46.2934V2.56114H53.2018V7.19733H62.8681V15.6816H65.8035V21.7643ZM56.4177 15.6816V13.178H53.1925V15.6816H56.4177ZM56.4177 24.2307V21.7643H53.1925V24.2307H56.4177Z" fill="#231815"/>
<path d="M88.5763 26.4005C87.1646 34.384 83.6964 42.145 78.1528 49.6834L71.6369 45.6685C76.8159 38.8255 80.0225 31.3983 81.2377 23.3684L88.5763 26.3912V26.4005ZM125.175 43.1742C124.839 47.7177 123.951 51.3895 122.511 54.1898C121.071 56.9901 119.65 58.7889 118.267 59.5678C116.883 60.3467 114.855 60.7361 112.181 60.7361H99.785C94.3629 60.7361 91.6519 58.316 91.6519 53.4666V18.1851H99.4204V51.8624C99.4204 52.3261 99.6074 52.7433 99.972 53.1142C100.337 53.4851 100.739 53.6706 101.169 53.6706H111.377C114.742 53.6706 116.724 49.2569 117.323 40.4203L125.166 43.1835L125.175 43.1742ZM139.936 44.9174L133.168 49.1642C129.821 40.6336 124.942 33.1786 118.519 26.7992L124.212 22.4875C131.186 28.7556 136.421 36.2385 139.936 44.9174Z" fill="#231815"/>
<path d="M209.115 52.4559L205.244 58.8724C197.56 54.7925 191.661 49.3311 187.548 42.4973V63.2489H180.06V42.692C176.358 49.4053 170.739 54.7925 163.195 58.8724L159.615 53.5407V63.2397H152.127V31.4354C150.481 34.1985 148.771 36.7855 147.004 39.1964L141.198 34.4952C148.359 25.6772 153.277 14.8007 155.95 1.86571L163.401 3.71091C162.924 5.88065 162.167 8.51401 161.148 11.6017L159.606 16.0061V52.4466C166.103 49.6371 171.113 45.0287 174.647 38.6029H161.793V31.9917H180.06V27.745H166.271V4.03545H201.729V27.745H187.548V31.9917H207.142V38.6029H193.064C196.625 44.9174 201.973 49.5351 209.105 52.4466L209.115 52.4559ZM194.251 21.143V10.6559H173.768V21.143H194.251Z" fill="#231815"/>
<path d="M95.0173 4.6567C94.5125 5.24086 93.8581 5.50976 93.1196 5.70448C92.3811 5.90847 91.3153 6.38136 90.9601 7.99476C90.6329 9.6267 91.8389 10.795 92.7644 11.2308C93.6898 11.6666 94.6434 11.5368 95.4847 11.2679C96.6159 11.0825 97.6349 11.0917 98.2051 11.5183C98.6445 11.8892 100.346 14.5132 103.038 16.785C105.815 19.1216 108.694 20.3363 108.797 20.429C109.208 20.7814 109.638 21.449 109.732 22.3021C109.816 23.2664 109.395 24.9261 110.227 25.8719C111.059 26.8641 111.779 27.3833 112.966 27.3277C114.154 27.2628 114.939 26.5117 115.266 25.9925C115.593 25.4825 115.677 24.5182 115.799 23.8227C116.005 23.0438 116.668 22.1166 117.528 21.8848C118.36 21.6066 119.099 21.5603 119.837 20.6794C120.585 19.7985 120.623 18.5282 120.249 17.6659C119.847 16.8035 118.304 15.5518 117.061 15.867C115.874 16.1637 114.163 16.2101 114.163 16.2101C114.013 16.1916 113.686 16.2565 112.826 15.5425C112.415 15.1994 110.928 12.7515 108.358 10.591C105.572 8.24511 102.59 6.9377 102.356 6.74298C101.907 6.36282 101.393 5.88065 101.458 4.98123C101.599 3.83145 102.131 2.22733 100.841 1.04974C99.5513 -0.118586 98.4295 -0.164948 97.6723 0.205948C96.8122 0.623206 96.0363 1.161 95.7652 2.38496C95.4941 3.60892 95.7652 3.81291 95.0267 4.68451" fill="#783821"/>
</svg>
