<svg width="241" height="45" viewBox="0 0 241 45" fill="none" xmlns="http://www.w3.org/2000/svg">
<g clip-path="url(#clip0_160_1541)">
<path d="M59.3213 5.46387H55.561C55.1277 5.46387 54.7764 5.81523 54.7764 6.24866V31.6139C54.7764 32.0473 55.1277 32.3987 55.561 32.3987H59.3213C59.7546 32.3987 60.1059 32.0473 60.1059 31.6139V6.24866C60.1059 5.81523 59.7546 5.46387 59.3213 5.46387Z" fill="#003B7E"/>
<path d="M18.9792 6.58984H17.3211C17.099 6.58984 16.8918 6.67869 16.7437 6.84157L5.67007 18.9097V7.37464C5.67007 6.94522 5.31476 6.58984 4.88544 6.58984H0.78463C0.355304 6.58984 0 6.94522 0 7.37464V31.6293C0 32.0587 0.355304 32.4141 0.78463 32.4141H4.88544C5.31476 32.4141 5.67007 32.0587 5.67007 31.6293V20.346L13.1611 32.0439C13.3091 32.2809 13.5756 32.4141 13.8421 32.4141H18.8015C19.3493 32.4141 19.6898 31.807 19.3937 31.3332L10.5407 17.503L19.4973 7.74483C19.897 7.3006 19.5862 6.58984 18.994 6.58984H18.9792Z" fill="#003B7E"/>
<path d="M73.2965 14.4375C71.6532 14.4375 70.1136 14.9113 68.7812 15.7109V15.2223C68.7812 14.7929 68.4259 14.4375 67.9966 14.4375H64.5175C64.0882 14.4375 63.7329 14.7929 63.7329 15.2223V44.2302C63.7329 44.6596 64.0882 45.015 64.5175 45.015H67.9966C68.4259 45.015 68.7812 44.6596 68.7812 44.2302V31.1404C70.0988 31.94 71.6384 32.4138 73.2965 32.4138C78.1672 32.4138 82.1199 28.3862 82.1199 23.4257C82.1199 18.4651 78.1672 14.4375 73.2965 14.4375ZM73.2965 28.0604C70.987 28.0604 69.0773 26.2983 68.7812 24.018V22.8185C69.0625 20.5382 70.9722 18.7761 73.2965 18.7761C75.8133 18.7761 77.8415 20.8491 77.8415 23.4108C77.8415 25.9725 75.7985 28.0456 73.2965 28.0456V28.0604Z" fill="#A8CC06"/>
<path d="M115.785 5.16803C115 3.96862 113.357 3.5392 111.98 3.9242C110.603 4.324 109.523 5.40495 108.842 6.66359C107.243 9.59547 107.687 13.1641 108.057 16.4958C108.427 19.8127 108.56 23.4997 106.517 26.1355C105.792 27.0683 104.741 27.8383 103.556 27.8827C102.476 27.9272 100.98 27.557 100.892 25.3359V24.6547V24.092C100.906 23.9291 100.921 23.7663 100.921 23.6182C100.921 23.5293 100.921 23.4405 100.921 23.3516C100.921 23.248 100.921 23.1591 100.921 23.0703C100.921 23.0259 100.921 22.9815 100.921 22.937C100.921 22.8482 100.906 22.7445 100.892 22.6557C100.892 22.4928 100.862 22.3151 100.847 22.1522C100.847 22.0634 100.818 21.9745 100.803 21.8857C100.773 21.708 100.744 21.5303 100.699 21.3526C100.699 21.2934 100.67 21.249 100.655 21.1897C100.536 20.7307 100.403 20.2717 100.225 19.8423C100.211 19.7978 100.181 19.7534 100.166 19.6942C100.092 19.5313 100.018 19.3536 99.9293 19.1907C99.8849 19.1019 99.8405 19.013 99.7813 18.9242C99.722 18.8057 99.648 18.6873 99.574 18.5688C99.5148 18.4652 99.4408 18.3615 99.3815 18.2727C99.3519 18.2431 99.3371 18.1986 99.3075 18.169C99.2483 18.095 99.1891 18.0209 99.1447 17.9469C99.0855 17.8581 99.0262 17.784 98.9522 17.6952C98.8486 17.5619 98.7302 17.4286 98.6117 17.2954C98.5377 17.2213 98.4637 17.1473 98.3897 17.0585C98.3008 16.9696 98.2268 16.8808 98.138 16.8067C98.064 16.7327 97.9751 16.6587 97.9011 16.5846C97.7679 16.4662 97.6346 16.3477 97.4866 16.244C97.4126 16.1848 97.3237 16.1256 97.2497 16.0664C97.1461 15.9923 97.0425 15.9183 96.924 15.8442C96.85 15.7998 96.776 15.7406 96.702 15.6962C96.5243 15.5925 96.3615 15.4889 96.169 15.4C96.095 15.3556 96.021 15.326 95.9469 15.2964C95.7989 15.2223 95.6657 15.1631 95.5176 15.0891C95.4584 15.0594 95.3992 15.0298 95.3252 15.015C95.1179 14.9262 94.9106 14.8521 94.7034 14.7929C94.6442 14.7781 94.5997 14.7633 94.5405 14.7485C94.3629 14.6893 94.1704 14.6448 93.978 14.6004C93.9335 14.6004 93.8743 14.5708 93.8299 14.5708C93.593 14.5264 93.371 14.4819 93.1193 14.4523C93.1193 14.4523 93.0897 14.4523 93.0749 14.4523C93.0453 14.4523 93.0305 14.4523 93.0009 14.4523C92.7344 14.4227 92.4679 14.4079 92.2014 14.4079C92.1718 14.4079 92.1274 14.4079 92.0978 14.4079C87.2272 14.4079 83.2744 18.4356 83.2744 23.3813C83.2744 28.327 87.2272 32.3546 92.0978 32.3546C93.7411 32.3546 95.2807 31.8956 96.5983 31.096C97.0869 31.5994 97.6346 32.0436 98.212 32.4138C101.247 34.3536 105.363 34.6053 108.516 32.8433C109.152 32.4879 109.759 32.0585 110.263 31.5402C112.424 29.3191 112.543 25.8393 112.291 22.7445C112.039 19.6498 111.566 16.3625 112.928 13.5787C113.609 12.172 114.719 11.017 115.474 9.6399C116.229 8.2628 116.599 6.50071 115.74 5.18284L115.785 5.16803ZM92.1126 27.9864C89.5959 27.9864 87.5677 25.9133 87.5677 23.3516C87.5677 20.7899 89.6107 18.7169 92.1126 18.7169C93.6523 18.7169 94.9995 19.4869 95.8285 20.6715C96.3467 21.4267 96.6724 22.3447 96.6724 23.3516C96.6724 24.3586 96.3763 25.2322 95.8729 25.9726C95.0587 27.1868 93.6819 27.9864 92.1274 27.9864H92.1126Z" fill="#A8CC06"/>
<path d="M42.3257 14.4376C41.1117 14.4376 39.9422 14.6893 38.8911 15.1483C38.743 13.4751 37.3514 12.1572 35.6341 12.1572C33.9168 12.1572 32.5252 13.4751 32.3771 15.1483C31.326 14.6893 30.1565 14.4376 28.9425 14.4376C24.0719 14.4376 20.1191 18.4652 20.1191 23.4257C20.1191 28.3862 24.0719 32.4139 28.9425 32.4139C31.6221 32.4139 34.0056 31.1997 35.6341 29.2747C37.2478 31.1849 39.6461 32.4139 42.3257 32.4139C47.1963 32.4139 51.1491 28.3862 51.1491 23.4257C51.1491 18.4652 47.1963 14.4376 42.3257 14.4376ZM28.9425 28.0605C26.4258 28.0605 24.3976 25.9874 24.3976 23.4257C24.3976 20.864 26.4406 18.791 28.9425 18.791C31.4445 18.791 33.4875 20.864 33.4875 23.4257C33.4875 25.9874 31.4445 28.0605 28.9425 28.0605ZM42.3257 28.0605C39.8089 28.0605 37.7807 25.9874 37.7659 23.4257C37.7659 20.864 39.8089 18.791 42.3257 18.791C44.8424 18.791 46.8706 20.864 46.8706 23.4257C46.8706 25.9874 44.8276 28.0605 42.3257 28.0605Z" fill="#003B7E"/>
<path d="M43.2881 11.5059C44.6501 11.5059 45.7456 10.4102 45.7456 9.04789C45.7456 7.6856 44.6501 6.58984 43.2881 6.58984C41.9261 6.58984 40.8306 7.6856 40.8306 9.04789C40.8306 10.4102 41.9261 11.5059 43.2881 11.5059Z" fill="#003B7E"/>
<path d="M27.832 11.5059C29.194 11.5059 30.2896 10.4102 30.2896 9.04789C30.2896 7.6856 29.194 6.58984 27.832 6.58984C26.47 6.58984 25.3745 7.6856 25.3745 9.04789C25.3745 10.4102 26.47 11.5059 27.832 11.5059Z" fill="#003B7E"/>
<path d="M190.858 36.9148C190.858 36.9148 152.1 36.1596 151.552 20.3008C152.1 4.44198 190.858 3.67199 190.858 3.67199C190.858 3.67199 214.781 4.07179 223.812 13.4597H240.63C234.131 5.41928 216.588 -0.459303 195.98 0.0293444C169.983 0.606837 149.835 9.06192 149.716 20.2416V20.286C149.716 20.3008 149.716 20.3156 149.716 20.3304C149.82 31.5101 169.983 39.9652 195.98 40.5575C216.588 41.0313 234.131 35.1675 240.63 27.1123H223.812C214.781 36.5002 190.858 36.9 190.858 36.9" fill="#002673"/>
<path d="M171.257 25.7201H164.373V24.417H165.735V16.11H164.373V14.7773H176.734V18.879H175.565V16.11H169.85V19.2048H174.395V20.345H169.85V24.417H171.257V25.7201Z" fill="#002673"/>
<path d="M213.805 16.11H212.428V24.417H213.805V25.7053H206.95V24.417H208.312V16.11H206.95V14.7773H213.805V16.11Z" fill="#002673"/>
<path d="M192.679 16.1107V14.8965H185.854V16.1107H187.364V21.3822C187.245 24.166 186.387 24.4473 185.232 24.4473C184.077 24.4473 183.219 24.1512 183.085 21.3822V16.1107H184.61V14.8965H177.8V16.1107H179.162V20.9676C178.807 26.2538 185.04 25.7948 185.232 25.78C185.425 25.78 191.672 26.2538 191.302 20.9676V16.1107H192.679Z" fill="#002673"/>
<path d="M196.276 20.3456V21.3822C196.394 24.166 197.268 24.4473 198.408 24.4473C199.548 24.4473 200.392 24.1512 200.54 21.3822V16.1107H199V14.8965H205.825V16.1107H204.478V20.9676C204.848 26.2538 198.6 25.7948 198.408 25.78C198.201 25.78 191.968 26.2538 192.323 20.9676V20.3456H196.276Z" fill="#002673"/>
<path d="M214.944 18.8346H216.143V16.11H218.734V24.417H217.387V25.7201H224.271V24.417H222.85V16.11H225.441V18.8346H226.655V16.11H226.669V14.7773H214.959H214.944V18.8346Z" fill="#002673"/>
<path d="M226.625 25.8243H230.356V24.5212H229.097L229.882 22.3001H234.205L235.034 24.5064H233.909V25.8391H241V24.5064H239.801L236.189 14.9111H231.214L227.809 24.536H226.64V25.8391L226.625 25.8243ZM231.955 16.1698L233.79 21.0562H230.311L231.955 16.1698Z" fill="#002673"/>
<path d="M135.134 2.75391H132.75V33.7164H135.134V2.75391Z" fill="#C8C9CA"/>
</g>
<defs>
<clipPath id="clip0_160_1541">
<rect width="241" height="45" fill="white"/>
</clipPath>
</defs>
</svg>
