<svg width="234" height="65" viewBox="0 0 234 65" fill="none" xmlns="http://www.w3.org/2000/svg">
<path d="M39.3222 46.7525H20.9867H19.6567V60.9253C19.6567 63.1752 21.4921 65 23.7352 65H36.5559C38.808 65 40.6345 63.1664 40.6345 60.9253V46.7525H39.3045H39.3222Z" fill="#A1C220"/>
<path d="M0 28.4696V41.2783C0 43.5282 1.83533 45.353 4.07851 45.353H18.2646V24.3861H4.07851C1.82646 24.3861 0 26.2197 0 28.4608V28.4696Z" fill="#A1C220"/>
<path d="M44.979 45.353H20.3217C19.9582 45.353 19.6567 45.0606 19.6567 44.6886V24.7847C19.6567 22.6942 21.1285 21.3212 21.3147 21.1618C22.423 20.0988 25.3046 16.9631 25.5085 15.0675C25.7302 13.0124 26.9892 7.20155 30.1101 5.04905C31.3071 4.22526 31.91 3.40146 32.4863 2.59539C33.1335 1.70073 33.7985 0.779497 35.1905 0.0708567C35.4122 -0.0442973 35.6693 -0.0265813 35.8732 0.115147C36.0772 0.256875 36.1836 0.496041 36.157 0.735207C36.0062 2.03733 35.9264 3.61406 36.0151 4.16325C36.1481 4.18983 36.3432 4.20754 36.5116 4.22526C37.3983 4.3227 38.8878 4.47328 40.7763 5.51853C42.2304 6.31575 42.8067 7.19269 43.2766 7.90133C43.7377 8.60111 43.9948 8.99086 44.979 9.15917C45.9631 9.32747 46.566 10.1424 46.5572 11.2939C46.5483 13.4464 44.3051 16.9099 40.2887 17.5565C39.3488 17.7071 38.7371 18.0083 38.4001 18.4778C37.7618 19.3813 38.0721 21.082 38.4356 23.0397C38.4711 23.2257 38.5065 23.4117 38.542 23.5977C40.9004 20.7897 44.1278 18.6195 47.1601 18.1589C53.2778 17.2377 57.6844 19.4522 60.2645 24.7492C61.293 26.8574 62.5077 27.0169 64.5203 27.2738C65.0789 27.3446 65.6641 27.4244 66.3025 27.5484C67.1004 27.7078 67.659 28.2659 67.8807 29.1074C68.5279 31.6319 66.0099 37.0087 64.2809 38.4703C62.6229 39.8699 58.1632 40.3393 54.7142 40.4899H54.5812C54.0226 40.5253 52.9232 41.6857 52.3291 42.5361C50.8662 45.2555 45.5907 45.3352 44.9967 45.3352L44.979 45.353ZM20.9867 44.0331H44.979C46.3887 44.0331 50.2544 43.6434 51.1588 41.9072C51.1676 41.8806 51.1854 41.8629 51.2031 41.8363C51.4957 41.4023 53.0562 39.2587 54.5103 39.1878H54.6521C59.1739 38.9929 62.3658 38.364 63.4209 37.4782C64.8395 36.2735 67.1004 31.4282 66.5951 29.4528C66.4798 29.0011 66.2493 28.9036 66.0453 28.8594C65.4513 28.7442 64.8927 28.6645 64.3519 28.5936C62.2328 28.319 60.4064 28.0799 59.0764 25.3339C56.7534 20.5506 52.9232 18.6372 47.364 19.4699C44.3494 19.9216 41.0334 22.3842 38.8435 25.3782C38.9765 26.3525 39.0563 27.3801 39.0031 28.4253C39.0563 28.9036 39.2158 31.4282 37.0613 34.3779C37.4958 35.1042 38.1696 35.7775 39.1892 36.3178C41.6098 37.5933 43.5426 37.2302 44.9524 35.2548C46.9739 32.4114 46.9473 27.7167 46.3887 27.1941C46.1227 26.946 46.105 26.5297 46.3532 26.2551C46.6015 25.9894 47.0182 25.9716 47.2931 26.2197C48.6496 27.4864 48.2152 32.9606 46.034 36.0166C44.2342 38.55 41.5832 39.0726 38.5686 37.487C37.5578 36.9556 36.7599 36.2735 36.1747 35.4586C34.2684 37.5668 31.112 39.7901 25.8986 41.606C25.5528 41.73 25.1716 41.544 25.0563 41.1986C24.9322 40.8531 25.1184 40.4722 25.4642 40.357C30.7751 38.5146 33.7897 36.2646 35.5009 34.2273C35.0487 33.0846 34.9334 31.7736 35.1817 30.3298C35.4831 28.5493 36.3077 26.7246 37.4514 25.0416C37.3539 24.4304 37.2475 23.8369 37.1411 23.27C36.7244 21.0112 36.3698 19.0624 37.3273 17.6983C37.877 16.9276 38.7814 16.4493 40.0847 16.2367C43.4983 15.6875 45.2361 12.7644 45.2361 11.2762C45.2361 10.541 44.8726 10.479 44.7573 10.4524C43.2057 10.1867 42.6826 9.38947 42.1683 8.61883C41.7427 7.97219 41.2994 7.30784 40.1379 6.67007C38.4799 5.75769 37.2121 5.62482 36.3698 5.53624C35.7757 5.47424 35.3413 5.42995 35.0309 5.11106C34.8625 4.94276 34.5078 4.58844 34.7029 2.0019C34.2684 2.40051 33.9404 2.85227 33.568 3.36603C32.9474 4.2164 32.2558 5.18192 30.8726 6.12973C28.594 7.69759 27.1399 12.3746 26.8385 15.2003C26.5459 17.9286 22.6713 21.7021 22.228 22.1273C22.228 22.1273 22.2102 22.145 22.2014 22.1539C22.1925 22.1539 20.9867 23.2345 20.9867 24.7935V44.0331ZM37.6642 27.2295C37.0791 28.3279 36.6623 29.4617 36.4762 30.5601C36.3609 31.2687 36.3166 32.0748 36.4762 32.8809C37.9036 30.5335 37.6908 28.7088 37.6731 28.567C37.6731 28.5228 37.6731 28.4785 37.6731 28.443C37.6908 28.0444 37.6908 27.637 37.6731 27.2383L37.6642 27.2295Z" fill="#073A77"/>
<path d="M158.441 12.6049H153.458C152.885 12.6049 152.421 13.0689 152.421 13.6413V47.2663C152.421 47.8387 152.885 48.3027 153.458 48.3027H158.441C159.014 48.3027 159.478 47.8387 159.478 47.2663V13.6413C159.478 13.0689 159.014 12.6049 158.441 12.6049Z" fill="#073A77"/>
<path d="M104.933 14.0931H102.725C102.432 14.0931 102.158 14.2171 101.963 14.4297L87.2799 30.4184V15.1295C87.2799 14.5626 86.81 14.0931 86.2425 14.0931H80.7986C80.2311 14.0931 79.7612 14.5626 79.7612 15.1295V47.2663C79.7612 47.8332 80.2311 48.3027 80.7986 48.3027H86.2425C86.81 48.3027 87.2799 47.8332 87.2799 47.2663V32.314L97.2102 47.8066C97.4052 48.1167 97.751 48.3027 98.1234 48.3027H104.702C105.429 48.3027 105.873 47.4966 105.482 46.8765L93.7346 28.5493L105.607 15.6167C106.139 15.032 105.731 14.0931 104.933 14.0931Z" fill="#073A77"/>
<path d="M176.981 24.4924C174.791 24.4924 172.751 25.1124 170.996 26.1754V25.5288C170.996 24.9619 170.526 24.4924 169.958 24.4924H165.339C164.772 24.4924 164.302 24.9619 164.302 25.5288V63.9548C164.302 64.5217 164.772 64.9912 165.339 64.9912H169.958C170.526 64.9912 170.996 64.5217 170.996 63.9548V46.6108C172.751 47.6738 174.791 48.2938 176.981 48.2938C183.444 48.2938 188.684 42.9613 188.684 36.3887C188.684 29.816 183.444 24.4835 176.981 24.4835V24.4924ZM176.981 42.5361C173.913 42.5361 171.377 40.2065 170.996 37.1859V35.6003C171.377 32.5797 173.904 30.2501 176.981 30.2501C180.314 30.2501 183.019 32.9961 183.019 36.3887C183.019 39.7813 180.314 42.5273 176.981 42.5273V42.5361Z" fill="#A1C220"/>
<path d="M233.344 12.2063C232.306 10.6207 230.125 10.045 228.308 10.5676C226.49 11.0902 225.045 12.5252 224.132 14.1905C222.013 18.0792 222.607 22.8093 223.094 27.2118C223.582 31.6142 223.759 36.4861 221.046 39.9939C220.089 41.234 218.688 42.2615 217.118 42.3147C215.682 42.3678 213.705 41.8895 213.581 38.9398V38.0451H213.59V37.301C213.616 37.0884 213.625 36.8759 213.625 36.6633C213.625 36.5481 213.643 36.433 213.643 36.3178C213.643 36.1938 213.634 36.0609 213.625 35.9369C213.625 35.8838 213.625 35.8218 213.625 35.7686C213.625 35.6446 213.598 35.5206 213.59 35.3877C213.572 35.1663 213.563 34.9448 213.528 34.7234C213.51 34.5993 213.483 34.4842 213.465 34.369C213.43 34.1299 213.386 33.8907 213.341 33.6604C213.324 33.5895 213.297 33.5187 213.279 33.4389C213.129 32.8277 212.942 32.2343 212.703 31.6585C212.676 31.5965 212.65 31.5345 212.614 31.4725C212.517 31.251 212.41 31.0296 212.304 30.8081C212.242 30.693 212.18 30.5778 212.118 30.4627C212.029 30.3032 211.94 30.1526 211.843 30.002C211.763 29.8692 211.674 29.7274 211.586 29.6034C211.55 29.5591 211.524 29.506 211.488 29.4528C211.417 29.3466 211.338 29.2491 211.267 29.1517C211.187 29.0454 211.107 28.9302 211.018 28.8239C210.876 28.6468 210.726 28.4696 210.575 28.2925C210.477 28.1862 210.389 28.0887 210.291 27.9913C210.176 27.8761 210.07 27.761 209.954 27.6547C209.848 27.5484 209.742 27.4509 209.635 27.3535C209.458 27.1941 209.272 27.0435 209.085 26.8929C208.979 26.8132 208.873 26.7334 208.766 26.6537C208.624 26.5474 208.483 26.45 208.341 26.3525C208.243 26.2905 208.146 26.2197 208.039 26.1577C207.809 26.0159 207.578 25.8831 207.339 25.7591C207.241 25.7059 207.144 25.6616 207.046 25.6173C206.86 25.5199 206.665 25.4313 206.47 25.3516C206.39 25.3162 206.301 25.2807 206.222 25.2453C205.947 25.139 205.672 25.0416 205.397 24.953C205.326 24.9264 205.255 24.9087 205.175 24.891C204.927 24.8201 204.688 24.7581 204.431 24.705C204.369 24.6872 204.298 24.6784 204.236 24.6607C203.925 24.5987 203.615 24.5455 203.305 24.5101C203.287 24.5101 203.269 24.5101 203.251 24.5101C203.225 24.5101 203.189 24.5101 203.163 24.5101C202.808 24.4747 202.453 24.4481 202.099 24.4481C202.054 24.4481 202.001 24.4481 201.957 24.4481C195.493 24.4481 190.253 29.7717 190.253 36.3444C190.253 42.917 195.493 48.2407 201.957 48.2407C204.138 48.2407 206.186 47.6295 207.933 46.5665C208.58 47.2309 209.298 47.8243 210.079 48.3204C214.095 50.8892 219.557 51.2347 223.75 48.8962C224.593 48.4267 225.391 47.8598 226.064 47.1688C228.937 44.2191 229.097 39.6218 228.76 35.5206C228.423 31.4193 227.802 27.07 229.611 23.3674C230.524 21.5072 231.987 19.9659 232.989 18.1589C233.991 16.343 234.479 13.9956 233.344 12.2595V12.2063ZM201.948 42.4387C198.614 42.4387 195.91 39.6927 195.91 36.3001C195.91 32.9075 198.614 30.1615 201.948 30.1615C203.987 30.1615 205.778 31.189 206.878 32.7569C207.578 33.7578 207.986 34.9802 207.986 36.3001C207.986 37.6199 207.587 38.7892 206.922 39.7813C205.832 41.3846 204.014 42.4387 201.948 42.4387Z" fill="#A1C220"/>
<path d="M135.894 24.4924C134.28 24.4924 132.737 24.829 131.337 25.4313C131.142 23.208 129.297 21.463 127.019 21.463C124.74 21.463 122.896 23.2168 122.701 25.4313C121.3 24.829 119.757 24.4924 118.143 24.4924C111.68 24.4924 106.44 29.8249 106.44 36.3975C106.44 42.9702 111.68 48.3027 118.143 48.3027C121.69 48.3027 124.873 46.6905 127.019 44.1483C129.164 46.6905 132.338 48.3027 135.894 48.3027C142.357 48.3027 147.597 42.9702 147.597 36.3975C147.597 29.8249 142.357 24.4924 135.894 24.4924ZM118.152 42.5361C114.819 42.5361 112.114 39.7902 112.114 36.3975C112.114 33.0049 114.819 30.2589 118.152 30.2589C121.486 30.2589 124.19 33.0049 124.19 36.3975C124.19 39.7902 121.486 42.5361 118.152 42.5361ZM135.894 42.5361C132.56 42.5361 129.856 39.7902 129.856 36.3975C129.856 33.0049 132.56 30.2589 135.894 30.2589C139.228 30.2589 141.932 33.0049 141.932 36.3975C141.932 39.7902 139.228 42.5361 135.894 42.5361Z" fill="#073A77"/>
<path d="M137.179 20.6037C138.979 20.6037 140.442 19.1421 140.442 17.344C140.442 15.5458 138.979 14.0842 137.179 14.0842C135.379 14.0842 133.917 15.5458 133.917 17.344C133.917 19.1421 135.379 20.6037 137.179 20.6037Z" fill="#073A77"/>
<path d="M116.671 20.6037C118.471 20.6037 119.934 19.1421 119.934 17.344C119.934 15.5458 118.471 14.0842 116.671 14.0842C114.872 14.0842 113.409 15.5458 113.409 17.344C113.409 19.1421 114.872 20.6037 116.671 20.6037Z" fill="#073A77"/>
<path d="M184.792 55.4511C184.889 55.4511 184.978 55.4865 185.04 55.5574C185.111 55.6282 185.146 55.708 185.146 55.8054V56.3192C185.146 56.4077 185.111 56.4963 185.04 56.5583C184.969 56.6292 184.889 56.6646 184.792 56.6646H184.029C184.029 56.6646 183.976 56.6823 183.976 56.7178V62.6881C183.976 63.0601 183.923 63.3347 183.825 63.5296C183.728 63.7245 183.559 63.875 183.329 63.9813C182.956 64.1231 182.309 64.2028 181.378 64.2028C181.281 64.2028 181.192 64.1674 181.112 64.1053C181.032 64.0433 180.979 63.9636 180.944 63.8662C180.882 63.6624 180.793 63.4587 180.696 63.2461C180.66 63.1753 180.669 63.1044 180.713 63.0424C180.758 62.9804 180.811 62.9449 180.891 62.9538C181.174 62.9538 181.671 62.9627 182.38 62.9627C182.495 62.9627 182.584 62.945 182.628 62.9007C182.682 62.8564 182.699 62.7855 182.699 62.6792V56.7266C182.699 56.7266 182.682 56.6735 182.664 56.6735H176.369C176.271 56.6735 176.183 56.6381 176.121 56.5672C176.05 56.4963 176.014 56.4166 176.014 56.328V55.8143C176.014 55.7168 176.05 55.6282 176.121 55.5662C176.191 55.4954 176.271 55.4599 176.369 55.4599H184.774L184.792 55.4511ZM181.254 61.3682C181.254 61.4568 181.219 61.5454 181.148 61.6074C181.077 61.6783 180.997 61.7137 180.899 61.7137H178.186C178.186 61.7137 178.133 61.7314 178.133 61.7668V62.13C178.133 62.2275 178.098 62.316 178.027 62.378C177.956 62.4489 177.876 62.4843 177.787 62.4843H177.318C177.22 62.4843 177.131 62.4489 177.069 62.378C176.998 62.3072 176.963 62.2275 176.963 62.13V58.1528C176.963 58.0642 176.998 57.9756 177.069 57.9136C177.14 57.8427 177.22 57.8073 177.318 57.8073H180.899C180.997 57.8073 181.086 57.8427 181.148 57.9136C181.219 57.9845 181.254 58.0642 181.254 58.1528V61.3682ZM180.066 58.9854C180.066 58.9854 180.048 58.95 180.013 58.95H178.186C178.186 58.95 178.133 58.9677 178.133 58.9854V60.5179C178.133 60.5179 178.151 60.5533 178.186 60.5533H180.013C180.013 60.5533 180.066 60.5444 180.066 60.5179V58.9854Z" fill="#3E3A39"/>
<path d="M191.433 58.4539C191.513 58.5071 191.566 58.578 191.583 58.6843C191.61 58.7817 191.583 58.8703 191.539 58.95L191.3 59.3575C191.255 59.4372 191.184 59.4815 191.096 59.4992C191.007 59.5169 190.918 59.4992 190.848 59.446C190.537 59.2246 190.165 58.9943 189.739 58.7374C189.651 58.6931 189.597 58.6223 189.58 58.5337C189.58 58.5071 189.571 58.4805 189.571 58.4451C189.571 58.3831 189.589 58.3299 189.624 58.2768L189.819 57.9579C189.872 57.8782 189.943 57.825 190.041 57.7985C190.138 57.7719 190.227 57.7807 190.324 57.825C190.794 58.0819 191.158 58.2945 191.433 58.4539ZM190.812 63.8042C190.768 63.8839 190.697 63.9282 190.608 63.9459C190.519 63.9636 190.44 63.9371 190.378 63.875L190.005 63.5384C189.934 63.4676 189.89 63.379 189.872 63.2816C189.855 63.1841 189.872 63.0867 189.925 63.007C190.422 62.1743 190.892 61.3151 191.317 60.4204C191.353 60.3496 191.406 60.3053 191.486 60.2964C191.566 60.2876 191.637 60.3053 191.699 60.3673L191.991 60.6862C192.089 60.7925 192.142 60.9076 192.142 61.0228C192.142 61.0936 192.124 61.1734 192.089 61.2531C191.672 62.1389 191.247 62.9981 190.803 63.8219L190.812 63.8042ZM190.245 55.9649C190.165 55.9117 190.121 55.8408 190.094 55.7434C190.094 55.7168 190.085 55.6903 190.085 55.6637C190.085 55.6017 190.103 55.5397 190.147 55.4865L190.351 55.1765C190.404 55.0968 190.475 55.0436 190.573 55.0259C190.67 54.9993 190.759 55.017 190.856 55.0613C191.317 55.3271 191.681 55.5485 191.956 55.7257C192.045 55.7788 192.098 55.8497 192.115 55.9471C192.133 56.0446 192.115 56.1332 192.062 56.2217L191.814 56.6203C191.761 56.7001 191.69 56.7444 191.601 56.7621C191.513 56.7709 191.424 56.7621 191.353 56.7001C191.06 56.4875 190.697 56.2483 190.245 55.9737V55.9649ZM198.827 56.9747C198.827 57.0721 198.792 57.1607 198.721 57.2227C198.65 57.2935 198.57 57.329 198.481 57.329H196.176C196.176 57.329 196.141 57.3378 196.141 57.3644V58.2148C196.141 58.2148 196.15 58.2679 196.176 58.2679H198.145C198.242 58.2679 198.322 58.3034 198.393 58.3742C198.455 58.4451 198.49 58.5248 198.49 58.6134V61.634C198.49 61.9263 198.464 62.1477 198.402 62.3072C198.34 62.4666 198.224 62.5995 198.056 62.6881C197.852 62.8121 197.515 62.8829 197.054 62.8918C196.956 62.8918 196.868 62.8564 196.788 62.7944C196.708 62.7324 196.664 62.6438 196.637 62.5463C196.602 62.3869 196.557 62.2275 196.513 62.0503C196.487 61.9706 196.495 61.8997 196.54 61.8288C196.584 61.7668 196.655 61.7314 196.735 61.7314H197.134C197.196 61.7314 197.231 61.7226 197.249 61.7048C197.267 61.6871 197.276 61.6517 197.276 61.5985V59.4638C197.276 59.4638 197.258 59.4283 197.24 59.4283H196.185C196.185 59.4283 196.15 59.446 196.15 59.4638V63.875C196.15 63.9636 196.114 64.0522 196.043 64.1142C195.972 64.1762 195.892 64.2205 195.795 64.2205H195.254C195.165 64.2205 195.077 64.1851 195.015 64.1142C194.944 64.0433 194.908 63.9636 194.908 63.875V59.4638C194.908 59.4638 194.891 59.4283 194.855 59.4283H193.871C193.871 59.4283 193.818 59.446 193.818 59.4638V62.5463C193.818 62.6438 193.782 62.7324 193.711 62.7944C193.64 62.8652 193.561 62.9007 193.472 62.9007H192.984C192.887 62.9007 192.798 62.8652 192.736 62.7944C192.665 62.7235 192.63 62.6438 192.63 62.5463V58.6045C192.63 58.516 192.665 58.4274 192.736 58.3654C192.807 58.2945 192.887 58.2591 192.984 58.2591H194.855C194.855 58.2591 194.908 58.2414 194.908 58.2059V57.3556C194.908 57.3556 194.891 57.3201 194.855 57.3201H192.701C192.612 57.3201 192.532 57.2847 192.461 57.2138C192.39 57.143 192.355 57.0632 192.355 56.9658V56.514C192.355 56.4255 192.39 56.3369 192.461 56.2749C192.532 56.204 192.612 56.1686 192.701 56.1686H194.855C194.855 56.1686 194.908 56.1509 194.908 56.1154V55.1056C194.908 55.0082 194.944 54.9285 195.015 54.8576C195.086 54.7956 195.165 54.7602 195.254 54.7602H195.795C195.892 54.7602 195.981 54.7956 196.043 54.8576C196.105 54.9196 196.15 55.0082 196.15 55.1056V56.1154C196.15 56.1154 196.158 56.1686 196.185 56.1686H198.49C198.579 56.1686 198.668 56.204 198.73 56.2749C198.801 56.3457 198.836 56.4255 198.836 56.514V56.9658L198.827 56.9747Z" fill="#3E3A39"/>
<path d="M207.224 58.0465C207.224 58.0465 207.286 58.0819 207.295 58.1085C207.312 58.1351 207.312 58.1705 207.295 58.2059C207.206 58.4451 207.126 58.6134 207.073 58.7197C207.055 58.7463 207.073 58.7551 207.1 58.7551H207.64C207.738 58.7551 207.827 58.7906 207.889 58.8614C207.96 58.9323 207.995 59.012 207.995 59.1095V59.26C207.995 59.3486 207.96 59.4372 207.889 59.4992C207.818 59.5701 207.738 59.6055 207.64 59.6055H203.589C203.491 59.6055 203.402 59.5701 203.34 59.4992C203.278 59.4283 203.234 59.3486 203.234 59.26V59.1095C203.234 59.012 203.269 58.9234 203.34 58.8614C203.411 58.7906 203.491 58.7551 203.589 58.7551H204.165C204.165 58.7551 204.209 58.7463 204.2 58.7197C204.165 58.5514 204.112 58.3742 204.041 58.1794C204.023 58.1528 204.032 58.1262 204.041 58.0996C204.058 58.0731 204.076 58.0642 204.103 58.0642L203.766 58.0554C203.668 58.0554 203.589 58.0199 203.518 57.9579C203.456 57.8959 203.42 57.8073 203.42 57.7099V57.6036C203.42 57.5062 203.456 57.4264 203.518 57.3556C203.58 57.2936 203.668 57.2581 203.766 57.2581H205.087C205.087 57.2581 205.14 57.2404 205.14 57.205V57.081C205.14 56.9835 205.176 56.895 205.247 56.833C205.317 56.7621 205.397 56.7267 205.486 56.7267H205.823C205.912 56.7267 205.991 56.7621 206.062 56.833C206.133 56.9038 206.169 56.9835 206.169 57.081V57.205C206.169 57.205 206.186 57.2581 206.222 57.2581H207.516C207.605 57.2581 207.694 57.2936 207.756 57.3556C207.827 57.4176 207.862 57.5062 207.862 57.6036V57.7099C207.862 57.8073 207.827 57.8871 207.756 57.9579C207.685 58.0288 207.605 58.0554 207.516 58.0554H207.197L207.224 58.0465ZM204.537 56.3989C204.537 56.3989 204.484 56.4078 204.484 56.4343V56.6824C204.484 56.7709 204.449 56.8507 204.378 56.9215C204.307 56.9924 204.227 57.0278 204.138 57.0278H203.757C203.659 57.0278 203.58 56.9924 203.509 56.9215C203.447 56.8507 203.411 56.7709 203.411 56.6824V55.77C203.411 55.6726 203.447 55.584 203.509 55.522C203.571 55.4511 203.659 55.4157 203.757 55.4157H207.135C207.135 55.4157 207.188 55.4068 207.188 55.3802V55.1234C207.188 55.0259 207.224 54.9462 207.286 54.8753C207.348 54.8133 207.437 54.7779 207.534 54.7779H208.039C208.137 54.7779 208.217 54.8133 208.288 54.8753C208.35 54.9373 208.385 55.0259 208.385 55.1234V55.3802C208.385 55.3802 208.403 55.4157 208.438 55.4157H211.843C211.941 55.4157 212.02 55.4511 212.091 55.522C212.153 55.5928 212.189 55.6726 212.189 55.77V56.6824C212.189 56.7709 212.153 56.8507 212.091 56.9215C212.029 56.9924 211.941 57.0278 211.843 57.0278H211.409C211.32 57.0278 211.231 56.9924 211.169 56.9215C211.098 56.8507 211.063 56.7709 211.063 56.6824V56.4343C211.063 56.4343 211.045 56.3989 211.01 56.3989H204.537ZM207.241 59.951C207.339 59.951 207.428 59.9864 207.49 60.0573C207.552 60.1281 207.596 60.2078 207.596 60.2964V63.2639C207.596 63.4942 207.57 63.6713 207.516 63.7865C207.463 63.9016 207.357 63.9991 207.215 64.0699C207.011 64.1585 206.692 64.1939 206.257 64.1939C206.16 64.1939 206.071 64.1674 205.991 64.0965C205.912 64.0345 205.858 63.9548 205.823 63.8573C205.805 63.8042 205.787 63.751 205.761 63.689C205.725 63.6182 205.734 63.5473 205.779 63.4853C205.823 63.4233 205.885 63.3879 205.965 63.3967H206.16C206.257 63.3967 206.328 63.3967 206.364 63.3879C206.426 63.3879 206.461 63.3701 206.479 63.3524C206.497 63.3347 206.506 63.2993 206.506 63.2461V62.821C206.506 62.821 206.488 62.7855 206.452 62.7855H204.901C204.901 62.7855 204.848 62.8032 204.848 62.821V63.8573C204.848 63.9459 204.812 64.0345 204.741 64.0965C204.67 64.1674 204.59 64.2028 204.502 64.2028H204.147C204.05 64.2028 203.97 64.1674 203.899 64.0965C203.837 64.0256 203.801 63.9459 203.801 63.8573V60.2876C203.801 60.199 203.837 60.1104 203.899 60.0484C203.961 59.9775 204.05 59.9421 204.147 59.9421H207.233L207.241 59.951ZM206.506 60.7925C206.506 60.7925 206.488 60.757 206.452 60.757H204.901C204.901 60.757 204.848 60.7748 204.848 60.7925V61.0582C204.848 61.0582 204.865 61.1114 204.901 61.1114H206.452C206.452 61.1114 206.506 61.0936 206.506 61.0582V60.7925ZM204.856 62.0946C204.856 62.0946 204.874 62.13 204.91 62.13H206.461C206.461 62.13 206.514 62.1212 206.514 62.0946V61.8111C206.514 61.8111 206.497 61.758 206.461 61.758H204.91C204.91 61.758 204.856 61.7757 204.856 61.8111V62.0946ZM206.266 58.0996C206.266 58.0996 206.266 58.0465 206.24 58.0465H205.06C205.06 58.0465 205.016 58.0642 205.034 58.0996C205.131 58.3211 205.202 58.5337 205.229 58.7197C205.229 58.7463 205.255 58.7551 205.282 58.7551H206C206 58.7551 206.053 58.7463 206.062 58.7197C206.151 58.4894 206.222 58.2857 206.266 58.0996ZM211.577 62.2629C211.675 62.2629 211.763 62.2983 211.825 62.3692C211.887 62.4401 211.932 62.5198 211.932 62.6172V62.7235C211.932 62.7235 211.949 62.7767 211.967 62.7855C212.038 62.821 212.118 62.8475 212.207 62.8741C212.304 62.9007 212.384 62.9538 212.437 63.0424C212.473 63.1044 212.499 63.1664 212.499 63.2284C212.499 63.255 212.499 63.2816 212.49 63.3081C212.419 63.627 212.295 63.8573 212.109 63.9814C211.932 64.1054 211.648 64.1674 211.276 64.1674H209.662C209.103 64.1674 208.722 64.0788 208.518 63.9016C208.314 63.7245 208.208 63.3879 208.208 62.8918V59.7827C208.208 59.6941 208.243 59.6144 208.314 59.5435C208.385 59.4726 208.465 59.4372 208.563 59.4372H210.832C210.832 59.4372 210.868 59.4195 210.868 59.3841V59.0829C210.868 59.0829 210.859 59.0475 210.832 59.0475H208.563C208.465 59.0475 208.376 59.012 208.314 58.9412C208.243 58.8703 208.208 58.7906 208.208 58.6931V57.0633C208.208 56.9658 208.243 56.8772 208.314 56.8152C208.385 56.7444 208.465 56.7089 208.563 56.7089H208.944C209.041 56.7089 209.13 56.7444 209.192 56.8152C209.263 56.8861 209.298 56.9658 209.298 57.0633V57.2138C209.298 57.2138 209.307 57.267 209.334 57.267H211.728C211.816 57.267 211.896 57.3024 211.967 57.3644C212.038 57.4264 212.074 57.515 212.074 57.6125V57.6656C212.074 57.763 212.038 57.8428 211.967 57.9136C211.896 57.9756 211.816 58.0111 211.728 58.0111H209.334C209.334 58.0111 209.298 58.0288 209.298 58.0642V58.3122C209.298 58.3122 209.307 58.3477 209.334 58.3477H211.63C211.728 58.3477 211.816 58.3831 211.879 58.454C211.949 58.5248 211.985 58.6045 211.985 58.702V59.8092C211.985 59.9067 211.949 59.9864 211.879 60.0573C211.808 60.1193 211.728 60.1547 211.63 60.1547H209.334C209.334 60.1547 209.298 60.1724 209.298 60.2078V60.4293C209.298 60.4293 209.307 60.4647 209.334 60.4647H211.426C211.506 60.4647 211.577 60.4913 211.63 60.5533C211.692 60.6153 211.719 60.6862 211.719 60.7659C211.719 60.8456 211.692 60.9253 211.63 60.9873C211.568 61.0494 211.506 61.0759 211.426 61.0759H209.334C209.334 61.0759 209.298 61.0936 209.298 61.1114V61.3328C209.298 61.3328 209.307 61.3682 209.334 61.3682H211.391C211.471 61.3682 211.542 61.3948 211.595 61.4568C211.657 61.5188 211.683 61.5897 211.683 61.6783C211.683 61.7669 211.657 61.8377 211.595 61.8997C211.533 61.9617 211.471 61.9883 211.391 61.9883H209.334C209.334 61.9883 209.298 61.9972 209.298 62.0237V62.2452C209.298 62.2452 209.307 62.2806 209.334 62.2806H211.568L211.577 62.2629ZM209.822 63.2816H211.169C211.302 63.2816 211.391 63.255 211.453 63.2107C211.506 63.1576 211.551 63.0601 211.577 62.9095C211.577 62.883 211.577 62.8741 211.551 62.8741H209.361C209.361 62.8741 209.325 62.8918 209.325 62.9095C209.325 63.0778 209.361 63.1753 209.423 63.2196C209.485 63.2639 209.627 63.2816 209.839 63.2816H209.822Z" fill="#3E3A39"/>
<path d="M225.976 61.7049C225.976 61.8023 225.94 61.8909 225.869 61.9529C225.799 62.0237 225.719 62.0592 225.621 62.0592H223.103C223.103 62.0592 223.094 62.0592 223.094 62.068C223.094 62.068 223.094 62.0769 223.103 62.0769C223.857 62.5375 224.77 62.8741 225.861 63.0956C225.932 63.1044 225.985 63.1487 226.002 63.2196C226.029 63.2904 226.011 63.3613 225.967 63.4144C225.869 63.5296 225.772 63.6625 225.674 63.8131C225.612 63.9016 225.541 63.9636 225.444 63.9991C225.346 64.0345 225.249 64.0434 225.151 64.0168C223.954 63.6979 222.935 63.1753 222.101 62.4489C222.101 62.4489 222.084 62.4489 222.075 62.4489C222.066 62.4489 222.057 62.4578 222.057 62.4666V63.8751C222.057 63.9636 222.021 64.0522 221.959 64.1142C221.897 64.1851 221.809 64.2205 221.711 64.2205H221.223C221.126 64.2205 221.046 64.1851 220.975 64.1142C220.913 64.0434 220.878 63.9636 220.878 63.8751V62.4223C220.878 62.4223 220.878 62.4135 220.86 62.4046C220.851 62.4046 220.842 62.4046 220.833 62.4046C219.991 63.131 218.98 63.6713 217.801 64.0434C217.704 64.0788 217.606 64.0699 217.509 64.0345C217.411 63.9991 217.331 63.9282 217.278 63.8485C217.189 63.7156 217.083 63.5916 216.985 63.4676C216.95 63.4322 216.923 63.3879 216.923 63.3436C216.923 63.317 216.923 63.2904 216.941 63.2727C216.959 63.2019 217.003 63.1576 217.083 63.131C218.085 62.883 218.954 62.5286 219.681 62.0769C219.681 62.0769 219.681 62.0769 219.681 62.068C219.681 62.068 219.681 62.0592 219.663 62.0592H217.331C217.234 62.0592 217.145 62.0237 217.083 61.9529C217.012 61.882 216.977 61.8023 216.977 61.7049V61.4125C216.977 61.3151 217.012 61.2354 217.083 61.1645C217.154 61.1025 217.234 61.0671 217.331 61.0671H220.816C220.816 61.0671 220.869 61.0494 220.869 61.0139V60.6153C220.869 60.6153 220.851 60.5622 220.816 60.5622H219.956C219.956 60.5622 219.956 60.5622 219.956 60.571C219.956 60.6242 219.929 60.6596 219.885 60.6685L219.441 60.7925C219.379 60.8102 219.326 60.8013 219.273 60.7748C219.22 60.7393 219.184 60.695 219.175 60.633C219.175 60.6153 219.167 60.6065 219.149 60.6065C218.901 60.6242 218.546 60.6507 218.094 60.6773C217.642 60.7039 217.384 60.7216 217.331 60.7216C217.234 60.7216 217.145 60.7039 217.074 60.6419C217.003 60.5799 216.959 60.5002 216.95 60.4116V60.2433C216.932 60.1547 216.959 60.0661 217.021 59.9953C217.083 59.9244 217.163 59.889 217.26 59.889H217.402C217.402 59.889 217.455 59.8624 217.473 59.8358C217.668 59.5966 217.801 59.4195 217.881 59.3043C217.899 59.2778 217.899 59.2512 217.881 59.2335C217.712 58.9943 217.473 58.7197 217.163 58.4185C217.101 58.3477 217.056 58.2591 217.047 58.1528C217.039 58.0465 217.065 57.9579 217.118 57.8782L217.207 57.7365C217.243 57.6745 217.305 57.6479 217.367 57.639C217.438 57.639 217.5 57.6479 217.553 57.6922C217.571 57.7099 217.588 57.7099 217.588 57.6922C217.73 57.4264 217.854 57.1607 217.961 56.9127C217.996 56.8241 218.067 56.7532 218.156 56.7178C218.244 56.6824 218.333 56.6735 218.422 56.7089L218.643 56.7887C218.732 56.8241 218.785 56.8772 218.821 56.9658C218.847 57.0544 218.838 57.1341 218.794 57.2138C218.528 57.6479 218.306 57.9756 218.138 58.1971C218.12 58.2237 218.12 58.2502 218.138 58.2679C218.2 58.3299 218.262 58.4185 218.342 58.516C218.36 58.5425 218.377 58.5425 218.395 58.516C218.493 58.3477 218.59 58.1882 218.679 58.0199C218.723 57.9313 218.794 57.8693 218.883 57.8339C218.971 57.7985 219.069 57.7985 219.158 57.8339L219.335 57.9048C219.424 57.9402 219.477 57.9933 219.503 58.0819C219.53 58.1705 219.521 58.2502 219.477 58.3211C219.051 58.9323 218.688 59.4283 218.377 59.8004C218.377 59.8004 218.377 59.8181 218.377 59.827C218.377 59.8358 218.377 59.8358 218.395 59.827L218.927 59.8092C218.927 59.8092 218.963 59.7915 218.954 59.7561C218.945 59.7295 218.927 59.7029 218.927 59.6764C218.901 59.5878 218.909 59.4992 218.945 59.4106C218.98 59.322 219.051 59.2689 219.14 59.2423H219.158C219.255 59.2069 219.353 59.2158 219.441 59.2512C219.53 59.2866 219.592 59.3575 219.628 59.4549C219.707 59.6498 219.769 59.8447 219.823 60.0484C219.823 60.0484 219.823 60.0484 219.831 60.0484V57.577C219.831 57.4796 219.867 57.3999 219.938 57.329C220.009 57.267 220.089 57.2316 220.186 57.2316H220.7C220.7 57.2316 220.745 57.2138 220.762 57.1784C220.807 57.0367 220.851 56.8861 220.878 56.7444C220.904 56.6558 220.958 56.5761 221.037 56.5229C221.099 56.4786 221.161 56.4521 221.223 56.4521C221.25 56.4521 221.277 56.4521 221.294 56.4609L221.782 56.5406C221.871 56.5584 221.933 56.6026 221.968 56.6824C222.004 56.7621 222.004 56.8418 221.968 56.9215C221.933 57.0101 221.888 57.0987 221.844 57.1873C221.835 57.2138 221.844 57.2227 221.862 57.2227H222.695C222.793 57.2227 222.882 57.2581 222.944 57.3201C223.014 57.3821 223.05 57.4707 223.05 57.5682V58.0022C223.05 58.0022 223.05 58.0111 223.059 58.0199H223.068L223.227 57.7985C223.263 57.7365 223.325 57.701 223.396 57.6922C223.467 57.6833 223.538 57.701 223.591 57.7542C223.609 57.7719 223.617 57.763 223.626 57.7453C223.768 57.4884 223.892 57.2227 224.008 56.957C224.043 56.8684 224.114 56.8064 224.203 56.7621C224.291 56.7178 224.38 56.7178 224.477 56.7621L224.708 56.8418C224.797 56.8772 224.85 56.9304 224.876 57.019C224.903 57.1075 224.894 57.1873 224.85 57.267C224.602 57.6567 224.38 57.9845 224.194 58.2414C224.176 58.2679 224.176 58.2945 224.203 58.3122C224.291 58.4008 224.353 58.4717 224.398 58.516C224.415 58.5425 224.433 58.5425 224.46 58.516C224.575 58.3477 224.69 58.1705 224.797 57.9933C224.85 57.9048 224.921 57.8428 225.009 57.8073C225.098 57.7719 225.196 57.7719 225.293 57.8073L225.515 57.8959C225.603 57.9313 225.657 57.9845 225.674 58.0642C225.701 58.1439 225.674 58.2237 225.63 58.2945C225.169 58.9146 224.779 59.4018 224.451 59.7649C224.451 59.7649 224.451 59.7827 224.451 59.7915C224.451 59.8004 224.46 59.8004 224.477 59.7915L225.054 59.7738C225.054 59.7738 225.098 59.7561 225.08 59.7207C225.063 59.6852 225.054 59.6409 225.027 59.6055C224.992 59.5169 224.992 59.4195 225.027 59.3309C225.063 59.2423 225.125 59.1803 225.213 59.136L225.267 59.1095C225.355 59.074 225.444 59.0652 225.533 59.1006C225.621 59.136 225.692 59.198 225.728 59.2866C225.869 59.5789 225.985 59.889 226.073 60.199C226.073 60.2344 226.082 60.2699 226.082 60.3053C226.082 60.3673 226.065 60.4204 226.047 60.4824C226.002 60.571 225.932 60.6419 225.843 60.6773L225.674 60.757C225.612 60.7836 225.541 60.7836 225.479 60.7482C225.417 60.7128 225.382 60.6685 225.364 60.5976C225.364 60.5799 225.346 60.571 225.329 60.571C224.389 60.6419 223.777 60.6862 223.511 60.7128C223.413 60.7128 223.325 60.6862 223.245 60.6242C223.165 60.5622 223.121 60.4824 223.112 60.385L223.094 60.1901C223.077 60.1015 223.103 60.0307 223.165 59.9598C223.227 59.889 223.298 59.8535 223.378 59.8535C223.413 59.8535 223.44 59.8447 223.458 59.827C223.609 59.6498 223.75 59.4726 223.892 59.2955C223.91 59.2689 223.91 59.2423 223.892 59.2246C223.671 58.9766 223.396 58.702 223.059 58.392H223.041C223.041 58.392 223.032 58.4008 223.032 58.4185V60.199C223.032 60.2964 222.997 60.3761 222.926 60.447C222.855 60.509 222.775 60.5444 222.678 60.5444H222.066C222.066 60.5444 222.013 60.5622 222.013 60.5976V60.9962C222.013 60.9962 222.03 61.0494 222.066 61.0494H225.586C225.683 61.0494 225.772 61.0848 225.834 61.1468C225.905 61.2088 225.94 61.2974 225.94 61.3948V61.6871L225.976 61.7049ZM219.459 56.957C219.362 56.957 219.273 56.9215 219.211 56.8507C219.14 56.7798 219.104 56.7001 219.104 56.6026V56.3723C219.104 56.3723 219.087 56.3192 219.069 56.3192H217.322C217.225 56.3192 217.136 56.2838 217.074 56.2217C217.003 56.1597 216.968 56.0712 216.968 55.9737V55.6637C216.968 55.5751 217.003 55.4865 217.074 55.4245C217.145 55.3537 217.225 55.3182 217.322 55.3182H219.069C219.069 55.3182 219.104 55.3005 219.104 55.2651V55.1234C219.104 55.0259 219.14 54.9462 219.211 54.8753C219.282 54.8133 219.362 54.7779 219.459 54.7779H219.956C220.044 54.7779 220.133 54.8133 220.195 54.8753C220.257 54.9373 220.301 55.0259 220.301 55.1234V55.2651C220.301 55.2651 220.319 55.3182 220.355 55.3182H222.571C222.571 55.3182 222.624 55.3005 222.624 55.2651V55.1234C222.624 55.0259 222.66 54.9462 222.731 54.8753C222.802 54.8045 222.882 54.7779 222.97 54.7779H223.467C223.564 54.7779 223.653 54.8133 223.715 54.8753C223.777 54.9373 223.821 55.0259 223.821 55.1234V55.2651C223.821 55.2651 223.839 55.3182 223.857 55.3182H225.648C225.745 55.3182 225.834 55.3537 225.896 55.4245C225.958 55.4954 226.002 55.5751 226.002 55.6637V55.9737C226.002 56.0712 225.967 56.1509 225.896 56.2217C225.825 56.2838 225.745 56.3192 225.648 56.3192H223.857C223.857 56.3192 223.821 56.3369 223.821 56.3723V56.6026C223.821 56.7001 223.786 56.7887 223.715 56.8507C223.644 56.9127 223.564 56.957 223.467 56.957H222.97C222.882 56.957 222.793 56.9215 222.731 56.8507C222.669 56.7798 222.624 56.7001 222.624 56.6026V56.3723C222.624 56.3723 222.607 56.3192 222.571 56.3192H220.355C220.355 56.3192 220.301 56.3369 220.301 56.3723V56.6026C220.301 56.7001 220.266 56.7887 220.195 56.8507C220.124 56.9127 220.044 56.957 219.956 56.957H219.459ZM221.977 58.5337C221.977 58.5337 222.013 58.516 222.013 58.4805V58.0819C222.013 58.0819 221.995 58.0288 221.977 58.0288H220.913C220.913 58.0288 220.878 58.0465 220.878 58.0819V58.4805C220.878 58.4805 220.887 58.5337 220.913 58.5337H221.977ZM220.913 59.2689C220.913 59.2689 220.878 59.2866 220.878 59.322V59.7295C220.878 59.7295 220.887 59.7827 220.913 59.7827H221.977C221.977 59.7827 222.013 59.7649 222.013 59.7295V59.322C222.013 59.322 221.995 59.2689 221.977 59.2689H220.913Z" fill="#3E3A39"/>
</svg>
